<svg width="24" height="25" viewBox="0 0 24 25" fill="none" xmlns="http://www.w3.org/2000/svg">
<path d="M21 8.58752L19 20.5875H5L3 8.58752M21 8.58752L15.5 13.0875L12 7.58752M21 8.58752C21.8284 8.58752 22.5 7.91595 22.5 7.08752C22.5 6.2591 21.8284 5.58752 21 5.58752C20.1716 5.58752 19.5 6.2591 19.5 7.08752C19.5 7.91595 20.1716 8.58752 21 8.58752ZM12 7.58752L8.5 13.0875L3 8.58752M12 7.58752C12.8284 7.58752 13.5 6.91595 13.5 6.08752C13.5 5.2591 12.8284 4.58752 12 4.58752C11.1716 4.58752 10.5 5.2591 10.5 6.08752C10.5 6.91595 11.1716 7.58752 12 7.58752ZM3 8.58752C3.82843 8.58752 4.5 7.91595 4.5 7.08752C4.5 6.2591 3.82843 5.58752 3 5.58752C2.17157 5.58752 1.5 6.2591 1.5 7.08752C1.5 7.91595 2.17157 8.58752 3 8.58752Z" stroke="#001A72" stroke-width="1.5" stroke-linecap="round" stroke-linejoin="round"/>
</svg>
