<svg xmlns="http://www.w3.org/2000/svg" width="45.867" height="43.437" viewBox="0 0 45.867 43.437">
  <g id="hubicon" transform="translate(-13.606 -14.6)">
    <path id="Path_784" data-name="Path 784" d="M17.9,30.5V53.114H53.4V30.879" transform="translate(0.858 3.924)" fill="none" stroke="#fff" stroke-width="2"/>
    <rect id="Rectangle_1541" data-name="Rectangle 1541" width="16.297" height="16.297" transform="translate(28.36 40.74)" fill="none" stroke="#fff" stroke-width="2"/>
    <path id="Path_785" data-name="Path 785" d="M34.159,31.9A6.258,6.258,0,0,1,29.232,34.8,5.891,5.891,0,0,1,23.8,31.9l1.516-16.3h8.843Z" transform="translate(2.412 0)" fill="none" stroke="#fff" stroke-width="2"/>
    <path id="Path_786" data-name="Path 786" d="M42.359,31.9a5.559,5.559,0,0,1-4.927,3.285A5.859,5.859,0,0,1,32,31.9V15.6h8.843Z" transform="translate(4.571 0)" fill="none" stroke="#fff" stroke-width="2"/>
    <path id="Path_787" data-name="Path 787" d="M26.212,31.9c-.253.253-3.79,4.043-8.212,2.653a7.023,7.023,0,0,1-2.148-1.137,3.3,3.3,0,0,1-1.137-3.285l3.411-12.633A2.579,2.579,0,0,1,20.653,15.6h7.075Z" transform="translate(0 0)" fill="none" stroke="#fff" stroke-width="2"/>
    <path id="Path_788" data-name="Path 788" d="M51.886,30.255a3.2,3.2,0,0,1-1.011,3.411,6.367,6.367,0,0,1-2.906,1.516A7.112,7.112,0,0,1,40.516,31.9L39,15.6h6.822a2.579,2.579,0,0,1,2.527,1.895Z" transform="translate(6.415 0)" fill="none" stroke="#fff" stroke-width="2"/>
  </g>
</svg>
